<?xml version="1.0" standalone="no"?>
<!DOCTYPE svg PUBLIC "-//W3C//DTD SVG 20010904//EN"
 "http://www.w3.org/TR/2001/REC-SVG-20010904/DTD/svg10.dtd">
<svg version="1.0" xmlns="http://www.w3.org/2000/svg"
 width="800.000000pt" height="800.000000pt" viewBox="0 0 800.000000 800.000000"
 preserveAspectRatio="xMidYMid meet">
<metadata>
Created by potrace 1.14, written by Peter Selinger 2001-2017
</metadata>
<g transform="translate(0.000000,800.000000) scale(0.100000,-0.100000)"
fill="#000000" stroke="none">
<path d="M2490 7990 c-77 -16 -133 -28 -155 -34 -145 -40 -293 -99 -475 -190
-151 -76 -373 -203 -378 -218 -2 -4 -8 -8 -13 -8 -17 0 -186 -118 -312 -219
-31 -24 -219 -212 -245 -243 -124 -156 -182 -338 -147 -467 10 -38 75 -213
110 -296 5 -11 9 -22 10 -25 1 -3 7 -18 13 -33 7 -15 15 -39 18 -53 3 -13 10
-27 15 -30 5 -3 9 -12 9 -20 0 -8 9 -34 19 -57 10 -23 27 -66 37 -94 10 -29
22 -53 26 -53 3 0 16 12 28 28 189 240 528 544 835 748 152 102 385 234 411
234 7 0 14 4 16 9 3 9 204 100 305 137 38 13 77 29 88 34 22 9 86 30 97 30 4
1 24 8 45 16 20 9 44 18 52 20 9 2 61 15 116 30 137 36 310 73 368 79 15 1 31
5 34 8 5 5 -27 47 -94 127 -54 64 -73 88 -73 93 0 4 -10 17 -22 30 -13 13 -30
32 -39 43 -60 77 -97 122 -111 139 -9 11 -35 44 -58 73 -93 120 -208 169 -391
169 -57 0 -120 -4 -139 -7z"/>
<path d="M5260 7993 c-61 -11 -149 -46 -192 -78 -26 -19 -91 -90 -144 -157
-54 -68 -104 -131 -113 -140 -18 -19 -24 -27 -65 -83 -17 -22 -33 -42 -36 -45
-17 -15 -131 -162 -128 -166 2 -2 21 -6 42 -10 45 -7 64 -10 131 -24 28 -6 61
-12 74 -15 85 -16 331 -87 461 -133 88 -31 284 -113 297 -124 7 -6 13 -8 13
-5 0 9 235 -114 365 -191 128 -76 375 -250 460 -323 54 -47 102 -88 124 -105
97 -78 420 -422 421 -449 0 -5 5 -3 10 7 17 28 242 611 255 659 16 58 12 140
-10 216 -18 62 -74 173 -87 173 -4 0 -8 5 -8 11 0 19 -104 140 -183 215 -98
92 -139 127 -217 182 -36 25 -67 49 -70 52 -3 3 -36 25 -75 50 -38 25 -72 47
-75 50 -6 6 -8 7 -184 107 -133 76 -293 156 -387 194 -74 29 -181 69 -199 74
-8 2 -42 12 -75 21 -126 34 -321 52 -405 37z"/>
<path d="M3856 7043 c-1 -1 -47 -5 -101 -8 -102 -6 -170 -12 -170 -15 0 -1
-18 -3 -40 -5 -41 -3 -75 -8 -160 -24 -27 -5 -68 -13 -89 -16 -22 -4 -50 -11
-63 -16 -13 -5 -23 -6 -23 -4 0 2 -11 0 -25 -5 -14 -5 -36 -12 -48 -14 -91
-16 -366 -109 -520 -175 -118 -51 -307 -145 -382 -192 -22 -13 -52 -31 -67
-38 -16 -8 -28 -18 -28 -23 0 -4 -4 -8 -10 -8 -12 0 -123 -71 -145 -93 -9 -10
-20 -17 -24 -17 -4 0 -17 -8 -29 -17 -11 -10 -30 -25 -42 -33 -12 -8 -28 -20
-34 -25 -6 -6 -36 -30 -66 -53 -146 -115 -325 -291 -485 -475 -78 -91 -335
-452 -335 -472 0 -3 -12 -24 -27 -48 -32 -51 -158 -302 -168 -337 -4 -14 -11
-30 -15 -35 -5 -6 -18 -37 -30 -70 -12 -33 -28 -73 -35 -90 -17 -40 -74 -221
-101 -320 -15 -55 -55 -239 -59 -270 -3 -22 -7 -50 -9 -62 -3 -11 -7 -43 -11
-70 -4 -26 -8 -59 -10 -71 -26 -167 -26 -678 -1 -842 2 -14 8 -47 12 -75 4
-27 8 -57 9 -65 2 -8 5 -31 8 -50 46 -288 172 -669 314 -953 82 -164 218 -390
287 -478 12 -15 30 -39 41 -55 26 -37 136 -174 178 -222 96 -110 346 -349 443
-424 16 -13 34 -26 39 -31 6 -4 44 -33 85 -63 41 -30 80 -58 85 -62 38 -30
105 -72 114 -72 6 0 11 -3 11 -8 0 -4 9 -12 19 -17 11 -6 59 -32 108 -60 48
-27 93 -52 98 -54 6 -2 18 -11 29 -20 10 -9 20 -15 22 -13 2 1 40 -16 84 -37
44 -22 80 -38 80 -36 0 3 20 -7 45 -21 25 -13 45 -22 45 -20 0 3 26 -7 58 -21
31 -14 64 -27 72 -28 8 -2 52 -17 97 -33 134 -49 397 -115 508 -128 22 -2 46
-7 54 -10 8 -2 37 -7 65 -11 68 -8 91 -11 91 -13 0 -6 186 -13 380 -14 221 -1
305 3 440 20 86 11 90 11 90 13 0 1 21 4 48 6 26 2 56 9 66 14 10 6 20 8 23 6
3 -3 54 6 114 20 60 15 116 27 124 29 28 5 134 37 210 63 41 14 80 26 85 28 6
1 21 7 35 12 14 6 50 21 80 32 67 26 64 25 230 104 160 76 279 144 413 235 54
37 106 72 115 77 9 6 19 12 22 15 3 3 34 28 70 55 101 77 226 188 331 294 85
85 120 123 228 246 22 25 63 80 196 260 28 39 85 127 85 133 0 3 6 13 14 21
31 36 216 395 216 420 0 6 5 11 12 11 6 0 9 3 6 6 -4 3 5 30 18 60 22 50 53
132 74 194 23 69 71 225 74 244 3 12 16 71 30 131 28 123 30 132 46 242 6 43
13 88 15 99 20 123 27 580 12 734 -9 97 -17 159 -22 190 -3 14 -8 48 -11 75
-4 28 -8 53 -10 56 -2 4 -6 24 -10 45 -3 22 -10 57 -16 79 -10 40 -14 56 -23
105 -4 19 -55 191 -89 295 -4 13 -9 25 -64 165 -47 120 -131 300 -152 325 -7
8 -9 15 -6 15 4 0 -2 13 -13 29 -12 16 -21 31 -21 34 0 12 -193 314 -231 361
-5 6 -50 63 -101 126 -138 172 -317 358 -463 480 -141 117 -382 288 -515 364
-94 54 -369 186 -465 224 -86 34 -298 106 -345 118 -8 2 -35 8 -60 15 -64 15
-66 16 -166 38 -50 11 -109 22 -130 25 -22 4 -49 8 -60 10 -51 10 -167 23
-284 32 -75 5 -390 11 -394 7z m374 -487 c52 -3 106 -8 120 -11 14 -3 45 -7
70 -10 25 -3 56 -7 70 -10 14 -2 39 -7 55 -10 17 -3 44 -7 60 -10 111 -20 415
-109 490 -145 11 -5 43 -18 72 -29 76 -30 238 -109 321 -158 41 -24 75 -43 78
-43 4 0 217 -142 224 -150 3 -3 32 -25 65 -50 33 -25 62 -47 65 -50 3 -3 39
-34 80 -70 370 -320 679 -768 852 -1235 31 -85 87 -264 94 -305 3 -14 9 -38
14 -55 9 -31 37 -174 46 -235 2 -19 6 -48 9 -65 27 -181 27 -637 0 -785 -3
-14 -7 -41 -10 -60 -8 -61 -15 -104 -26 -150 -5 -25 -12 -55 -14 -67 -9 -42
-13 -58 -25 -103 -7 -25 -13 -49 -15 -55 -1 -5 -4 -17 -7 -25 -3 -8 -20 -60
-38 -115 -53 -166 -160 -404 -239 -535 -11 -19 -26 -46 -33 -60 -7 -14 -16
-29 -21 -35 -4 -5 -30 -44 -57 -85 -27 -41 -58 -86 -69 -100 -10 -14 -36 -48
-58 -76 -184 -246 -517 -551 -774 -709 -152 -93 -383 -215 -408 -215 -6 0 -11
-5 -11 -12 0 -6 -3 -9 -6 -6 -3 4 -26 -3 -52 -14 -70 -31 -265 -97 -372 -125
-97 -25 -113 -29 -165 -39 -16 -3 -48 -9 -70 -14 -22 -5 -62 -12 -90 -15 -27
-3 -59 -8 -70 -10 -133 -26 -611 -27 -765 -1 -14 3 -45 7 -70 11 -78 11 -93
13 -170 30 -41 9 -84 18 -95 21 -11 2 -51 13 -90 24 -38 11 -77 22 -85 24
-125 32 -499 191 -552 235 -10 8 -18 11 -18 7 0 -4 -20 7 -44 24 -25 16 -47
30 -51 30 -7 0 -234 151 -262 174 -10 8 -34 28 -54 43 -101 79 -145 119 -269
243 -128 128 -215 223 -249 273 -8 12 -18 24 -21 27 -9 7 -118 164 -157 224
-71 113 -217 386 -207 386 2 0 -5 18 -16 39 -28 56 -111 281 -126 341 -2 8
-12 49 -24 90 -11 41 -22 89 -26 105 -3 17 -10 50 -15 75 -11 46 -13 60 -24
140 -4 25 -8 56 -11 70 -19 117 -26 508 -11 667 10 115 52 350 83 468 14 55
27 107 29 115 2 8 20 60 39 115 20 55 38 107 40 115 4 15 31 79 63 150 9 19
15 37 14 39 -2 2 1 7 6 10 4 3 27 45 51 93 23 48 47 90 52 93 6 4 8 10 5 15
-3 4 2 13 10 20 8 7 15 19 15 26 0 8 5 14 10 14 6 0 10 5 10 10 0 20 203 312
255 366 5 6 33 37 60 70 106 124 263 270 452 422 47 38 274 187 338 223 92 50
286 145 315 154 3 1 23 9 45 19 146 64 405 138 600 172 150 26 211 34 314 39
46 2 85 6 87 7 4 5 260 1 364 -6z"/>
<path d="M3935 6072 c-88 -25 -152 -95 -170 -187 -5 -25 -8 -177 -4 -203 1 -4
1 -11 0 -17 -1 -5 -2 -98 -1 -205 1 -107 1 -202 1 -210 -1 -19 0 -200 1 -209
0 -3 0 -10 -2 -16 -1 -5 -1 -62 0 -125 1 -63 1 -122 1 -130 -1 -18 -1 -200 1
-209 0 -3 0 -10 -2 -16 -1 -5 -1 -62 0 -125 1 -63 1 -122 1 -130 -1 -18 -1
-200 1 -209 0 -3 0 -10 -1 -16 -1 -5 -2 -53 -1 -105 1 -52 1 -104 0 -115 0
-11 -2 -33 -3 -50 l-2 -30 -1050 -1 c-577 -1 -1062 -4 -1076 -7 -55 -11 -149
-78 -149 -107 0 -5 -5 -10 -12 -10 -6 0 -8 -3 -5 -7 4 -3 2 -12 -5 -20 -6 -7
-12 -42 -14 -77 -3 -81 26 -147 86 -199 24 -20 45 -35 47 -33 3 2 15 -2 29 -9
19 -9 279 -12 1227 -12 1163 0 1204 0 1254 19 60 22 123 86 140 142 6 19 11
67 11 106 1 38 1 73 2 78 1 4 1 59 1 122 0 63 0 153 0 200 1 146 0 191 -6 201
-4 5 -1 9 5 9 6 0 8 4 5 10 -3 5 -6 48 -5 95 1 86 1 109 1 200 0 69 0 80 0
165 1 95 1 90 -1 185 -1 44 -1 85 0 90 1 6 1 62 1 125 0 63 0 153 0 200 1 146
0 191 -6 201 -4 5 -1 9 5 9 6 0 8 4 5 10 -5 8 -6 48 -3 213 0 17 0 48 -1 67 0
19 -1 53 -1 75 -1 114 -32 185 -104 234 -66 46 -125 56 -201 33z"/>
</g>
</svg>
